<?xml version="1.0" encoding="UTF-8" standalone="no"?><!-- Generator: Gravit.io --><svg xmlns="http://www.w3.org/2000/svg" xmlns:xlink="http://www.w3.org/1999/xlink" style="isolation:isolate" viewBox="0 0 285.82 269.66" width="285.82pt" height="269.66pt"><defs><clipPath id="_clipPath_w9k2UgqlENSUq2ZpkyZYP3dZ8BC7jlnZ"><rect width="285.82" height="269.66"/></clipPath></defs><g clip-path="url(#_clipPath_w9k2UgqlENSUq2ZpkyZYP3dZ8BC7jlnZ)"><clipPath id="_clipPath_0VPmR4h4PcjYYbTtp42ejyYlOuuklxN5"><path d=" M 0 0 L 0 269.66 L 285.82 269.66 L 285.82 0 L 0 0 Z " fill="rgb(255,255,255)"/></clipPath><g clip-path="url(#_clipPath_0VPmR4h4PcjYYbTtp42ejyYlOuuklxN5)"><path d=" M 0 156.851 C 0 155.833 0.916 154.916 1.934 154.916 L 7.839 154.916 C 8.858 154.916 9.774 155.833 9.774 156.851 L 9.774 200.937 L 25.657 186.683 C 26.37 186.072 27.184 185.461 28.203 185.461 L 35.329 185.461 C 37.06 185.461 37.366 187.395 36.45 188.21 L 19.549 203.584 L 39.504 223.54 C 40.421 224.457 40.114 226.187 38.383 226.187 L 30.035 226.187 C 29.323 226.187 28.508 225.78 28.203 225.373 L 9.774 206.435 L 9.774 224.253 C 9.774 225.271 8.858 226.187 7.839 226.187 L 1.934 226.187 C 0.916 226.187 0 225.271 0 224.253 L 0 156.851 Z " fill="rgb(69,41,50)"/><path d=" M 81.76 219.976 C 85.833 219.976 89.702 216.922 90.924 214.886 L 90.924 208.37 C 90.314 207.962 87.462 206.741 83.797 206.741 C 78.91 206.741 75.55 209.286 75.55 213.46 C 75.55 217.126 77.994 219.976 81.76 219.976 Z  M 82.983 200.428 C 87.258 200.428 91.026 201.65 91.026 201.65 C 91.128 195.236 89.906 192.69 84.714 192.69 C 80.029 192.69 75.448 193.912 73.31 194.523 C 72.088 194.828 71.376 194.014 71.07 192.894 L 70.256 189.126 C 69.95 187.803 70.663 187.09 71.579 186.785 C 72.292 186.479 78.095 184.443 85.629 184.443 C 98.662 184.443 99.884 192.384 99.884 202.566 L 99.884 224.253 C 99.884 225.271 98.967 226.187 97.949 226.187 L 95.099 226.187 C 94.182 226.187 93.775 225.78 93.368 224.762 L 92.349 222.013 C 90.11 224.15 86.139 227.205 79.826 227.205 C 72.19 227.205 66.692 222.013 66.692 213.562 C 66.692 206.129 72.597 200.428 82.983 200.428 Z " fill="rgb(69,41,50)"/><path d=" M 135.114 187.395 C 135.114 186.378 136.03 185.461 137.048 185.461 L 140.001 185.461 C 140.714 185.461 141.528 186.072 141.732 186.887 L 142.851 190.349 C 143.564 189.33 147.332 184.443 154.764 184.443 C 158.633 184.443 163.316 185.461 162.197 188.21 L 159.754 193.199 C 159.244 194.319 158.225 194.523 157.31 194.115 C 156.698 193.809 155.172 193.403 153.848 193.403 C 147.942 193.403 145.091 197.679 144.684 198.392 L 144.684 224.253 C 144.684 225.983 143.564 226.187 141.935 226.187 L 137.048 226.187 C 136.03 226.187 135.114 225.271 135.114 224.253 L 135.114 187.395 Z " fill="rgb(69,41,50)"/><path d=" M 218.095 201.344 C 217.791 196.457 213.717 192.283 208.729 192.283 C 203.23 192.283 198.955 196.253 198.343 201.344 L 218.095 201.344 Z  M 208.83 184.443 C 219.42 184.443 227.565 192.384 227.565 203.279 C 227.565 203.992 227.464 205.315 227.361 206.027 C 227.259 207.046 226.445 207.758 225.528 207.758 L 197.835 207.758 C 198.14 213.257 202.925 218.653 209.544 218.653 C 213.209 218.653 216.569 217.024 218.604 215.7 C 219.827 214.987 220.54 214.58 221.354 215.599 L 224.205 219.468 C 224.918 220.282 225.222 221.097 224.002 222.115 C 221.048 224.66 215.754 227.205 208.932 227.205 C 196.613 227.205 188.468 217.532 188.468 205.825 C 188.468 194.319 196.613 184.443 208.83 184.443 Z " fill="rgb(69,41,50)"/><path d=" M 262.387 193.912 L 258.111 193.912 C 256.991 193.912 256.176 192.995 256.176 191.977 L 256.176 187.395 C 256.176 186.276 256.991 185.461 258.111 185.461 L 262.387 185.461 L 262.387 174.16 C 262.387 173.142 263.303 172.225 264.321 172.225 L 270.125 172.123 C 271.143 172.123 271.958 173.039 271.958 174.058 L 271.958 185.461 L 282.342 185.461 C 283.463 185.461 284.277 186.276 284.277 187.395 L 284.277 191.977 C 284.277 192.995 283.463 193.912 282.342 193.912 L 271.958 193.912 L 271.958 214.071 C 271.958 217.532 273.281 218.144 275.215 218.144 C 277.353 218.144 280.205 216.922 281.426 216.311 C 282.751 215.7 283.361 216.311 283.768 217.227 L 285.601 221.707 C 286.11 222.827 285.703 223.642 284.684 224.15 C 283.667 224.762 277.66 227.205 272.772 227.205 C 264.729 227.205 262.387 222.318 262.387 215.089 L 262.387 193.912 Z " fill="rgb(69,41,50)"/><path d=" M 35.255 260.461 L 34.525 260.461 L 34.525 259.838 L 35.255 259.838 L 35.255 258.424 C 35.255 257.481 35.65 257.041 35.924 256.813 C 36.228 256.554 36.608 256.402 37.141 256.402 C 37.703 256.402 38.205 256.539 38.6 256.797 L 38.28 257.391 C 37.991 257.208 37.596 257.056 37.217 257.056 C 36.517 257.056 36.121 257.558 36.121 258.44 L 36.121 259.838 L 38.129 259.838 L 37.885 260.461 L 36.121 260.461 L 36.121 267.41 L 35.255 267.41 L 35.255 260.461 Z " fill="rgb(170,102,56)"/><path d=" M 47.008 265.737 C 47.252 265.205 47.373 264.642 47.373 263.761 C 47.373 262.682 47.221 261.921 46.933 261.374 C 46.628 260.766 45.944 260.34 45.139 260.34 C 44.302 260.34 43.664 260.781 43.39 261.283 C 43.1 261.8 42.934 262.53 42.934 263.473 C 42.934 264.552 43.131 265.464 43.45 265.98 C 43.74 266.451 44.378 266.893 45.199 266.893 C 46.112 266.893 46.735 266.392 47.008 265.737 Z  M 42.736 266.315 C 42.279 265.646 42.037 264.733 42.037 263.594 C 42.037 262.423 42.326 261.434 42.827 260.766 C 43.299 260.142 44.09 259.656 45.154 259.656 C 46.4 259.656 47.192 260.279 47.632 260.948 C 48.072 261.617 48.301 262.499 48.301 263.7 C 48.301 264.733 48.089 265.54 47.723 266.163 C 47.252 266.999 46.369 267.576 45.184 267.576 C 44.013 267.576 43.193 267.029 42.736 266.315 Z " fill="rgb(170,102,56)"/><path d=" M 58.273 265.737 C 58.516 265.205 58.637 264.642 58.637 263.761 C 58.637 262.682 58.485 261.921 58.197 261.374 C 57.892 260.766 57.208 260.34 56.403 260.34 C 55.566 260.34 54.928 260.781 54.654 261.283 C 54.364 261.8 54.198 262.53 54.198 263.473 C 54.198 264.552 54.395 265.464 54.715 265.98 C 55.004 266.451 55.642 266.893 56.463 266.893 C 57.376 266.893 57.999 266.392 58.273 265.737 Z  M 54 266.315 C 53.544 265.646 53.301 264.733 53.301 263.594 C 53.301 262.423 53.591 261.434 54.091 260.766 C 54.564 260.142 55.354 259.656 56.418 259.656 C 57.664 259.656 58.456 260.279 58.896 260.948 C 59.337 261.617 59.565 262.499 59.565 263.7 C 59.565 264.733 59.353 265.54 58.987 266.163 C 58.516 266.999 57.633 267.576 56.448 267.576 C 55.278 267.576 54.457 267.029 54 266.315 Z " fill="rgb(170,102,56)"/><path d=" M 69.691 265.676 L 69.691 261.283 C 69.325 260.766 68.701 260.401 67.728 260.401 C 67.105 260.401 66.512 260.689 66.148 261.236 C 65.737 261.83 65.539 262.499 65.539 263.655 C 65.539 264.552 65.661 265.373 65.934 265.844 C 66.315 266.498 66.877 266.817 67.668 266.817 C 68.687 266.817 69.371 266.284 69.691 265.676 Z  M 65.342 266.406 C 64.885 265.767 64.628 264.795 64.628 263.67 C 64.628 262.18 65.083 261.069 65.95 260.355 C 66.467 259.914 67 259.716 67.607 259.716 C 68.504 259.716 69.249 260.082 69.705 260.689 C 69.705 260.689 69.691 260.142 69.691 259.686 L 69.691 256.311 L 70.511 256.447 L 70.511 265.129 C 70.511 266.346 70.571 266.97 70.739 267.41 L 69.903 267.41 C 69.857 267.319 69.736 266.877 69.721 266.513 C 69.203 267.212 68.504 267.517 67.637 267.517 C 66.619 267.517 65.843 267.121 65.342 266.406 Z " fill="rgb(170,102,56)"/><path d=" M 86.701 255.9 L 87.4 255.9 L 83.463 269.66 L 82.763 269.66 L 86.701 255.9 Z " fill="rgb(170,102,56)"/><path d=" M 96.217 255.9 L 96.917 255.9 L 92.98 269.66 L 92.28 269.66 L 96.217 255.9 Z " fill="rgb(170,102,56)"/><path d=" M 109.412 266.392 C 108.957 265.707 108.713 264.855 108.713 263.715 C 108.713 262.073 109.169 261.191 109.792 260.537 C 110.37 259.96 111.008 259.671 111.784 259.671 C 112.712 259.671 113.289 260.02 113.791 260.476 L 113.335 261.055 C 112.818 260.599 112.407 260.401 111.769 260.401 C 111.16 260.401 110.568 260.689 110.218 261.222 C 109.838 261.784 109.61 262.636 109.61 263.882 C 109.61 265.631 110.294 266.893 111.8 266.893 C 112.452 266.893 113.061 266.603 113.532 266.057 L 113.989 266.589 C 113.335 267.272 112.666 267.561 111.769 267.561 C 110.72 267.561 109.93 267.15 109.412 266.392 Z " fill="rgb(170,102,56)"/><path d=" M 123.4 265.737 C 123.643 265.205 123.765 264.642 123.765 263.761 C 123.765 262.682 123.612 261.921 123.324 261.374 C 123.02 260.766 122.335 260.34 121.53 260.34 C 120.693 260.34 120.055 260.781 119.782 261.283 C 119.492 261.8 119.325 262.53 119.325 263.473 C 119.325 264.552 119.523 265.464 119.842 265.98 C 120.131 266.451 120.769 266.893 121.59 266.893 C 122.503 266.893 123.127 266.392 123.4 265.737 Z  M 119.128 266.315 C 118.671 265.646 118.428 264.733 118.428 263.594 C 118.428 262.423 118.718 261.434 119.218 260.766 C 119.691 260.142 120.481 259.656 121.545 259.656 C 122.792 259.656 123.583 260.279 124.024 260.948 C 124.464 261.617 124.693 262.499 124.693 263.7 C 124.693 264.733 124.48 265.54 124.114 266.163 C 123.643 266.999 122.761 267.576 121.576 267.576 C 120.405 267.576 119.584 267.029 119.128 266.315 Z " fill="rgb(170,102,56)"/><path d=" M 130.241 260.461 L 129.511 260.461 L 129.511 259.838 L 130.241 259.838 L 130.241 258.424 C 130.241 257.481 130.636 257.041 130.91 256.813 C 131.214 256.554 131.594 256.402 132.127 256.402 C 132.689 256.402 133.191 256.539 133.586 256.797 L 133.267 257.391 C 132.977 257.208 132.582 257.056 132.203 257.056 C 131.504 257.056 131.107 257.558 131.107 258.44 L 131.107 259.838 L 133.115 259.838 L 132.872 260.461 L 131.107 260.461 L 131.107 267.41 L 130.241 267.41 L 130.241 260.461 Z " fill="rgb(170,102,56)"/><path d=" M 137.645 260.461 L 136.915 260.461 L 136.915 259.838 L 137.645 259.838 L 137.645 258.424 C 137.645 257.481 138.04 257.041 138.314 256.813 C 138.618 256.554 138.998 256.402 139.531 256.402 C 140.093 256.402 140.595 256.539 140.99 256.797 L 140.671 257.391 C 140.381 257.208 139.986 257.056 139.607 257.056 C 138.907 257.056 138.511 257.558 138.511 258.44 L 138.511 259.838 L 140.519 259.838 L 140.276 260.461 L 138.511 260.461 L 138.511 267.41 L 137.645 267.41 L 137.645 260.461 Z " fill="rgb(170,102,56)"/><path d=" M 149.397 263.016 C 149.397 262.104 149.246 261.526 149.003 261.131 C 148.713 260.66 148.166 260.325 147.466 260.325 C 146.326 260.325 145.489 261.222 145.414 263.016 L 149.397 263.016 Z  M 144.471 263.562 C 144.471 262.27 144.76 261.404 145.368 260.689 C 145.885 260.082 146.586 259.671 147.511 259.671 C 148.318 259.671 148.957 259.99 149.412 260.446 C 149.99 261.055 150.279 261.769 150.279 263.473 L 150.279 263.639 C 150.279 263.639 145.46 263.639 145.414 263.639 C 145.414 263.639 145.399 263.929 145.414 264.064 C 145.444 264.871 145.627 265.494 145.915 265.92 C 146.326 266.527 147.011 266.862 147.861 266.862 C 148.622 266.862 149.26 266.649 149.778 266.178 L 150.112 266.71 C 149.473 267.258 148.668 267.561 147.694 267.561 C 145.612 267.561 144.471 265.949 144.471 263.562 Z " fill="rgb(170,102,56)"/><path d=" M 160.131 263.016 C 160.131 262.104 159.978 261.526 159.735 261.131 C 159.446 260.66 158.898 260.325 158.199 260.325 C 157.059 260.325 156.222 261.222 156.146 263.016 L 160.131 263.016 Z  M 155.204 263.562 C 155.204 262.27 155.494 261.404 156.101 260.689 C 156.619 260.082 157.318 259.671 158.245 259.671 C 159.05 259.671 159.689 259.99 160.145 260.446 C 160.723 261.055 161.011 261.769 161.011 263.473 L 161.011 263.639 C 161.011 263.639 156.193 263.639 156.146 263.639 C 156.146 263.639 156.131 263.929 156.146 264.064 C 156.176 264.871 156.36 265.494 156.648 265.92 C 157.059 266.527 157.743 266.862 158.594 266.862 C 159.355 266.862 159.993 266.649 160.51 266.178 L 160.844 266.71 C 160.207 267.258 159.4 267.561 158.427 267.561 C 156.345 267.561 155.204 265.949 155.204 263.562 Z " fill="rgb(170,102,56)"/><path d=" M 176.579 255.9 L 177.278 255.9 L 173.34 269.66 L 172.641 269.66 L 176.579 255.9 Z " fill="rgb(170,102,56)"/><path d=" M 186.095 255.9 L 186.796 255.9 L 182.858 269.66 L 182.158 269.66 L 186.095 255.9 Z " fill="rgb(170,102,56)"/><path d=" M 203.67 265.676 L 203.67 261.283 C 203.303 260.766 202.68 260.401 201.708 260.401 C 201.084 260.401 200.491 260.689 200.127 261.236 C 199.715 261.83 199.518 262.499 199.518 263.655 C 199.518 264.552 199.639 265.373 199.914 265.844 C 200.294 266.498 200.856 266.817 201.647 266.817 C 202.666 266.817 203.35 266.284 203.67 265.676 Z  M 199.321 266.406 C 198.864 265.767 198.606 264.795 198.606 263.67 C 198.606 262.18 199.062 261.069 199.929 260.355 C 200.446 259.914 200.978 259.716 201.586 259.716 C 202.483 259.716 203.227 260.082 203.684 260.689 C 203.684 260.689 203.67 260.142 203.67 259.686 L 203.67 256.311 L 204.49 256.447 L 204.49 265.129 C 204.49 266.346 204.55 266.97 204.718 267.41 L 203.881 267.41 C 203.837 267.319 203.714 266.877 203.7 266.513 C 203.182 267.212 202.483 267.517 201.617 267.517 C 200.598 267.517 199.823 267.121 199.321 266.406 Z " fill="rgb(170,102,56)"/><path d=" M 210.507 261.434 C 210.507 260.432 210.31 260.006 210.264 259.914 L 211.086 259.701 C 211.131 259.777 211.344 260.203 211.313 260.978 C 211.527 260.66 211.815 260.355 212.134 260.127 C 212.575 259.792 213.001 259.656 213.426 259.656 C 213.624 259.656 213.823 259.716 213.838 259.732 L 213.503 260.613 C 213.426 260.584 213.291 260.553 213.169 260.553 C 212.698 260.553 212.241 260.736 211.846 261.131 C 211.451 261.526 211.328 261.8 211.328 262.407 L 211.328 267.41 L 210.507 267.41 L 210.507 261.434 Z " fill="rgb(170,102,56)"/><path d=" M 218.427 259.838 L 219.28 259.701 L 219.28 267.41 L 218.427 267.41 L 218.427 259.838 Z  M 218.201 257.451 C 218.201 257.087 218.504 256.782 218.87 256.782 C 219.234 256.782 219.539 257.07 219.539 257.451 C 219.539 257.816 219.234 258.12 218.87 258.12 C 218.504 258.12 218.201 257.816 218.201 257.451 Z " fill="rgb(170,102,56)"/><path d=" M 225.299 261.434 C 225.299 260.446 225.072 260.006 225.042 259.93 L 225.846 259.716 C 225.878 259.777 226.09 260.249 226.09 260.917 C 226.836 260.127 227.657 259.701 228.523 259.701 C 229.298 259.701 229.922 260.065 230.212 260.599 C 230.393 260.887 230.5 261.253 230.5 261.647 L 230.5 267.41 L 229.678 267.41 L 229.678 262.073 C 229.678 261.359 229.557 261.069 229.329 260.781 C 229.131 260.567 228.765 260.416 228.341 260.416 C 227.657 260.416 226.714 260.887 226.105 261.586 L 226.105 267.41 L 225.299 267.41 L 225.299 261.434 Z " fill="rgb(170,102,56)"/><path d=" M 237.415 263.153 L 240.532 259.838 L 241.566 259.838 L 238.388 263.153 L 242.173 267.41 L 241.079 267.41 L 237.415 263.153 Z  M 236.487 258.015 C 236.487 257.056 236.321 256.539 236.29 256.463 L 237.111 256.295 C 237.141 256.371 237.308 256.919 237.308 258.044 L 237.308 267.41 L 236.487 267.41 L 236.487 258.015 Z " fill="rgb(170,102,56)"/><path d=" M 245.99 266.862 L 246.308 266.254 C 246.992 266.695 247.798 266.938 248.665 266.938 C 249.759 266.938 250.429 266.315 250.429 265.402 C 250.429 264.688 250.063 264.186 249.045 263.974 L 248.102 263.791 C 246.932 263.548 246.263 262.863 246.263 261.8 C 246.263 260.537 247.236 259.625 248.787 259.625 C 249.592 259.625 250.368 259.853 250.946 260.218 L 250.611 260.827 C 250.048 260.508 249.44 260.279 248.756 260.279 C 247.708 260.279 247.115 260.887 247.115 261.709 C 247.115 262.437 247.524 262.833 248.376 263.016 L 249.349 263.213 C 250.733 263.503 251.296 264.217 251.296 265.251 C 251.296 266.635 250.246 267.593 248.619 267.593 C 247.662 267.593 246.689 267.319 245.99 266.862 Z " fill="rgb(170,102,56)"/><path d=" M 159.211 3.356 C 158.248 3.356 157.276 3.371 156.277 3.399 C 152.027 3.523 146.738 3.678 141.151 4.314 C 68.921 12.539 69.726 34.387 71.059 70.583 C 71.149 73.015 71.24 75.504 71.312 78.051 L 71.331 78.761 C 72.413 117.356 73.269 147.84 138.63 147.84 C 140.692 147.84 142.849 147.809 145.039 147.747 L 145.039 147.747 C 167.239 147.124 187.201 138.617 199.808 124.408 C 211.394 111.35 216.558 93.963 214.743 74.126 C 211.2 35.425 204.506 3.356 159.211 3.356 Z  M 138.63 151.197 C 70.007 151.197 69.066 117.672 67.976 78.855 L 67.957 78.146 C 67.886 75.609 67.795 73.129 67.705 70.707 C 66.349 33.884 65.453 9.557 140.772 0.979 C 146.501 0.328 151.867 0.171 156.179 0.045 C 179.663 -0.645 195.745 6.52 205.296 21.939 C 214.001 35.994 216.387 55.275 218.084 73.82 C 219.986 94.603 214.535 112.867 202.319 126.634 C 189.098 141.534 168.256 150.453 145.133 151.102 L 145.133 151.102 C 142.912 151.164 140.723 151.197 138.63 151.197 Z " fill="rgb(69,41,50)"/><path d=" M 181.487 111.614 C 181.487 113.364 182.85 114.782 184.533 114.782 C 186.215 114.782 187.58 113.364 187.58 111.614 M 74.527 61.496 L 80.258 61.496 L 83.603 49.162 L 74.933 49.162 C 74.534 53.034 74.459 57.145 74.527 61.496 Z  M 145.567 113.899 C 143.901 115.875 141.411 117.409 137.681 117.409 C 127.158 117.409 111.462 120.452 97.489 113.818 L 97.489 101.622 C 97.489 101.622 97.317 83.145 84.897 77.943 C 81.967 76.716 78.5 76.516 75.023 77.124 C 75.03 77.378 75.038 77.63 75.045 77.885 C 75.149 81.566 75.247 85.177 75.404 88.697 C 84.635 94.807 90.777 105.531 90.777 117.729 C 90.777 122.047 90.001 126.178 88.598 129.989 C 98.245 139.269 115.063 144.529 144.664 143.697 C 149.498 143.561 154.237 143.029 158.819 142.117 C 151.179 135.142 146.17 125.123 145.567 113.899 Z  M 123.187 48.098 C 123.184 47.811 123.144 47.514 123.028 47.225 C 122.915 46.938 122.703 46.657 122.422 46.509 C 122.129 46.366 121.887 46.337 121.589 46.356 C 121.302 46.382 121.013 46.531 120.811 46.758 C 120.612 46.988 120.484 47.272 120.457 47.589 C 120.442 47.939 120.561 48.196 120.728 48.435 C 120.899 48.649 121.219 48.831 121.492 48.672 C 121.742 48.515 121.817 48.241 121.851 48.001 C 121.748 48.218 121.589 48.421 121.418 48.461 C 121.25 48.501 121.107 48.363 121.021 48.197 C 120.83 47.834 120.936 47.447 121.2 47.215 C 121.33 47.113 121.474 47.055 121.634 47.052 C 121.782 47.048 121.998 47.103 122.108 47.177 C 122.349 47.314 122.474 47.685 122.464 48.093 C 122.465 48.498 122.354 48.933 122.151 49.267 C 122.064 49.422 121.91 49.604 121.763 49.782 C 121.614 49.959 121.459 50.132 121.307 50.33 C 121.155 50.524 120.998 50.752 120.895 51.009 C 120.797 51.273 120.745 51.52 120.723 51.8 C 120.694 52.371 120.99 52.892 121.388 53.13 C 120.741 52.338 121.115 51.311 121.72 50.765 L 122.217 50.276 C 122.381 50.103 122.551 49.942 122.72 49.695 C 123.022 49.218 123.173 48.671 123.187 48.098 Z  M 144.964 31.127 C 143.254 29.624 138.23 30.038 139.149 35.564 C 139.522 37.81 133.402 35.952 129.558 36.79 C 125.715 37.627 127.13 40.588 127.13 40.588 C 127.13 40.588 126.3 42.842 127.443 45.229 C 127.91 46.203 128.015 47.106 127.834 47.81 C 127.804 47.81 127.774 47.809 127.743 47.808 C 127.386 47.8 127.097 47.746 127.068 47.821 C 127.038 47.885 127.332 48.072 127.736 48.081 C 127.739 48.081 127.742 48.081 127.746 48.081 C 127.512 48.673 127.047 49.085 126.406 49.217 C 124.754 49.558 125.442 49.936 126.065 50.921 C 126.689 51.907 125.727 52.552 125.895 52.745 C 126.064 52.939 126.737 53.19 126.737 53.19 C 126.703 53.629 126.517 54.103 126.517 54.103 C 127.379 54.105 127.546 55.195 127.375 55.898 C 127.205 56.601 127.507 58.025 131.21 56.976 C 132.403 56.639 133.362 56.723 134.096 57.09 C 135.319 57.702 136.261 63.786 127.439 69.818 C 127.439 69.818 126.15 70.475 125.143 71.663 C 124.47 71.231 123.868 70.5 123.406 69.327 C 123.406 69.327 121.051 64.797 120.82 62.756 C 120.786 62.446 120.673 61.076 120.505 59.97 C 120.838 60.032 121.338 60.069 122.104 60.047 C 124.411 59.979 124.114 59.407 123.812 59.364 C 124.089 59.227 124.441 59.05 124.698 58.701 C 124.97 58.365 125.16 57.919 125.293 57.44 C 125.758 55.487 125.419 53.858 125.437 53.87 L 118.351 54.077 C 118.351 54.077 118.342 54.329 118.344 54.702 C 118.285 54.751 118.242 54.831 118.189 54.892 C 118.135 54.921 118.091 54.938 118.017 54.984 C 117.5 55.307 116.821 56.897 116.821 56.897 C 116.821 56.897 115.92 57.572 115.903 58.187 C 115.887 58.803 116.102 59.445 116.102 59.445 C 116.102 59.445 116.095 60.807 116.317 61.339 C 116.785 62.464 118.486 64.657 118.702 65.367 C 118.919 66.078 119.106 68.542 119.106 68.542 C 119.106 68.542 119.443 72.146 120.099 74.714 L 109.219 74.714 L 109.219 23.051 L 144.964 23.051 L 144.964 31.127 Z  M 142.395 55.651 C 142.033 56.376 140.812 56.392 140.812 56.392 C 141.015 60.728 142.492 61.863 144.277 63.748 L 144.015 54.062 C 143.222 55.097 142.395 55.651 142.395 55.651 Z  M 208.068 84.572 L 188.781 108.476 C 188.266 107.725 187.574 107.119 186.766 106.719 L 206.05 82.82 C 200.426 78.265 193.443 75.45 185.847 75.158 L 185.847 106.371 C 185.426 106.258 184.988 106.191 184.533 106.191 C 184.079 106.191 183.64 106.258 183.219 106.371 L 183.219 75.158 C 182.781 75.174 182.344 75.202 181.91 75.235 C 181.143 81.258 179.362 89.071 175.226 91.397 C 174.139 92.01 172.755 92.522 171.192 92.954 L 182.299 106.719 C 181.492 107.119 180.799 107.725 180.286 108.476 L 168.302 93.624 C 163.23 94.621 157.226 94.985 153.252 95.117 C 151.902 97.875 150.875 100.831 150.232 103.936 L 179.796 109.357 C 179.493 110.045 179.319 110.808 179.319 111.614 C 179.319 111.761 179.329 111.905 179.34 112.05 L 149.78 106.629 C 149.564 108.26 149.444 109.922 149.444 111.614 C 149.444 117.767 150.923 123.566 153.519 128.657 L 179.51 113.052 C 179.75 113.958 180.206 114.77 180.822 115.421 L 154.839 131.021 C 157.185 134.889 160.213 138.264 163.74 140.973 C 167.328 140.015 170.8 138.813 174.121 137.368 L 181.573 116.076 C 182.288 116.589 183.131 116.922 184.043 117.011 L 177.466 135.801 C 181.605 133.727 185.475 131.255 189.007 128.394 L 185.023 117.011 C 185.935 116.922 186.779 116.589 187.493 116.076 L 191.163 126.56 C 193.219 124.726 195.146 122.75 196.926 120.633 L 188.245 115.42 C 188.861 114.77 189.317 113.957 189.556 113.051 L 198.631 118.5 C 200.777 115.684 202.679 112.643 204.3 109.377 L 189.726 112.05 C 189.737 111.905 189.748 111.761 189.748 111.614 C 189.748 110.808 189.574 110.045 189.27 109.357 L 205.696 106.346 C 208.169 100.542 209.798 94.092 210.424 87.022 C 209.674 86.169 208.891 85.349 208.068 84.572 Z  M 87.435 117.729 C 87.435 116.295 87.333 114.887 87.15 113.504 L 79.333 114.937 C 80.868 119.455 83.006 123.572 86.004 127.192 C 86.93 124.208 87.435 121.03 87.435 117.729 Z  M 86.767 111.221 C 85.435 104.781 82.174 99.078 77.64 94.806 L 75.927 96.929 C 76.416 102.539 77.216 107.838 78.631 112.713 L 86.767 111.221 Z  M 85.302 45.744 C 85.39 45.865 85.419 46.02 85.38 46.166 L 84.574 49.134 L 84.574 49.162 L 84.567 49.162 L 81.056 62.109 C 81 62.316 80.817 62.46 80.61 62.46 L 80.082 62.46 C 80.396 73.834 91.625 74.714 91.625 74.714 L 91.625 21.473 C 81.34 27.771 77.052 35.827 75.415 45.553 L 84.933 45.553 C 85.078 45.553 85.215 45.623 85.302 45.744 Z  M 182.539 64.176 C 176.324 72.77 157.471 72.694 157.27 72.685 L 144.964 72.685 L 144.964 74.613 L 157.25 74.612 C 157.365 74.618 157.866 74.637 158.657 74.637 C 162.994 74.637 176.572 73.608 182.502 66.676 L 182.485 67.718 C 182.485 67.718 182.467 69.055 182.321 71.093 C 183.053 71.05 183.79 71.023 184.533 71.023 C 194.594 71.023 203.778 75.004 210.707 81.529 C 210.742 79.111 210.671 76.629 210.476 74.079 C 207.628 36.774 200.864 1.434 140.857 8.267 C 120.165 10.623 105.843 14.254 95.956 19.104 L 183.219 19.104 L 182.539 64.176 Z " fill="rgb(69,41,50)"/></g></g></svg>